<svg width="62" height="44" viewBox="0 0 62 44" fill="none" xmlns="http://www.w3.org/2000/svg">
<g filter="url(#filter0_d_95_292)">
<rect x="2.5" y="1.5" width="57" height="39" rx="3.5" fill="white" stroke="#F3F3F3"/>
<path fill-rule="evenodd" clip-rule="evenodd" d="M19.5771 15.9265C19.1552 16.4313 18.4802 16.8294 17.8052 16.7725C17.7209 16.09 18.0513 15.3649 18.4381 14.9171C18.8599 14.3981 19.5982 14.0284 20.1959 14C20.2662 14.7109 19.992 15.4076 19.5771 15.9265ZM20.1888 16.9076C19.5942 16.873 19.0516 17.0884 18.6133 17.2624C18.3313 17.3744 18.0924 17.4692 17.9107 17.4692C17.7068 17.4692 17.4581 17.3693 17.1789 17.2571C16.813 17.1102 16.3947 16.9422 15.956 16.9502C14.9506 16.9645 14.0154 17.5403 13.5021 18.4573C12.4474 20.2915 13.2279 23.0071 14.2474 24.5C14.7467 25.2393 15.3443 26.0498 16.1318 26.0213C16.4783 26.0081 16.7275 25.9012 16.9854 25.7905C17.2823 25.6631 17.5908 25.5308 18.0724 25.5308C18.5374 25.5308 18.8324 25.6597 19.1155 25.7834C19.3847 25.9011 19.6433 26.014 20.0271 26.0071C20.8428 25.9929 21.356 25.2678 21.8553 24.5284C22.394 23.7349 22.6307 22.9605 22.6667 22.843L22.6709 22.8294C22.67 22.8285 22.6634 22.8254 22.6516 22.82C22.4715 22.7366 21.095 22.0995 21.0818 20.391C21.0686 18.9569 22.1736 18.2304 22.3476 18.116C22.3582 18.109 22.3653 18.1043 22.3685 18.1019C21.6654 17.0498 20.5685 16.936 20.1888 16.9076ZM25.8349 25.9289V14.846H29.9482C32.0717 14.846 33.5553 16.3246 33.5553 18.4858C33.5553 20.6469 32.0435 22.1398 29.892 22.1398H27.5365V25.9289H25.8349ZM27.5365 16.2962H29.4982C30.9748 16.2962 31.8185 17.0924 31.8185 18.4929C31.8185 19.8934 30.9748 20.6967 29.4912 20.6967H27.5365V16.2962ZM39.1732 24.5995C38.7232 25.4668 37.7318 26.0142 36.6631 26.0142C35.081 26.0142 33.9771 25.0616 33.9771 23.6256C33.9771 22.2038 35.0459 21.3863 37.0217 21.2654L39.1451 21.1374V20.5261C39.1451 19.6232 38.5615 19.1327 37.5209 19.1327C36.6631 19.1327 36.0373 19.5806 35.9107 20.263H34.3779C34.4271 18.827 35.7631 17.782 37.5701 17.782C39.5177 17.782 40.7834 18.8128 40.7834 20.4123V25.9289H39.2084V24.5995H39.1732ZM37.1201 24.6991C36.2131 24.6991 35.6365 24.2583 35.6365 23.5829C35.6365 22.8863 36.192 22.481 37.2537 22.4171L39.1451 22.2962V22.9218C39.1451 23.9597 38.2732 24.6991 37.1201 24.6991ZM46.0076 26.3626C45.3256 28.3033 44.5451 28.9431 42.8857 28.9431C42.7592 28.9431 42.3373 28.9289 42.2388 28.9005V27.5711C42.3443 27.5853 42.6045 27.5995 42.7381 27.5995C43.4904 27.5995 43.9123 27.2796 44.1724 26.4479L44.3271 25.9573L41.4443 17.8886H43.2232L45.2271 24.436H45.2623L47.2662 17.8886H48.9959L46.0076 26.3626Z" fill="#111827"/>
</g>
<defs>
<filter id="filter0_d_95_292" x="0" y="0" width="62" height="44" filterUnits="userSpaceOnUse" color-interpolation-filters="sRGB">
<feFlood flood-opacity="0" result="BackgroundImageFix"/>
<feColorMatrix in="SourceAlpha" type="matrix" values="0 0 0 0 0 0 0 0 0 0 0 0 0 0 0 0 0 0 127 0" result="hardAlpha"/>
<feOffset dy="1"/>
<feGaussianBlur stdDeviation="1"/>
<feColorMatrix type="matrix" values="0 0 0 0 0 0 0 0 0 0 0 0 0 0 0 0 0 0 0.05 0"/>
<feBlend mode="normal" in2="BackgroundImageFix" result="effect1_dropShadow_95_292"/>
<feBlend mode="normal" in="SourceGraphic" in2="effect1_dropShadow_95_292" result="shape"/>
</filter>
</defs>
</svg>
