<svg width="62" height="44" viewBox="0 0 62 44" fill="none" xmlns="http://www.w3.org/2000/svg">
<g filter="url(#filter0_d_95_302)">
<rect x="2.5" y="1.5" width="57" height="39" rx="3.5" fill="white" stroke="#F3F3F3"/>
<path fill-rule="evenodd" clip-rule="evenodd" d="M29.9175 25.1182V20.6071V20.6062H32.3579C33.364 20.6068 34.2095 20.2907 34.8946 19.6578C35.5868 19.0571 35.9739 18.1935 35.9542 17.2934C35.9679 16.3982 35.5816 15.541 34.8946 14.9422C34.2156 14.3059 33.3023 13.9587 32.3579 13.9778H28.4404V25.1182H29.9175ZM29.9175 19.2382V15.3494V15.3485H32.3946C32.9466 15.3334 33.4788 15.5487 33.856 15.9396C34.2355 16.2971 34.4496 16.7881 34.4496 17.3009C34.4496 17.8137 34.2355 18.3048 33.856 18.6622C33.4742 19.0449 32.9437 19.254 32.3946 19.2382H29.9175Z" fill="#5F6368"/>
<path fill-rule="evenodd" clip-rule="evenodd" d="M41.943 18.0951C41.3112 17.5297 40.4494 17.2471 39.3577 17.2471C37.9552 17.2471 36.8962 17.7448 36.1806 18.7404L37.4815 19.5342C37.9623 18.8598 38.6152 18.5226 39.4403 18.5226C39.9663 18.5167 40.4753 18.703 40.8659 19.0444C41.2554 19.3564 41.4794 19.8215 41.476 20.3111V20.6382C40.9085 20.3271 40.1861 20.1715 39.3091 20.1715C38.2815 20.1727 37.4601 20.4062 36.8448 20.872C36.2296 21.3377 35.9219 21.965 35.9219 22.7537C35.9085 23.4719 36.23 24.1577 36.7971 24.6204C37.3806 25.1182 38.1057 25.3671 38.9724 25.3671C39.9877 25.3671 40.8011 24.9315 41.4127 24.0604H41.477V25.1182H42.8898V20.4204C42.8904 19.4355 42.5748 18.6604 41.943 18.0951ZM37.9367 23.7182C37.6273 23.5021 37.4447 23.1544 37.4468 22.7848C37.4468 22.3697 37.6477 22.024 38.0523 21.7395C38.4529 21.4592 38.9532 21.3191 39.5532 21.3191C40.377 21.3191 41.0192 21.4968 41.4798 21.8524C41.4798 22.4533 41.2351 22.9768 40.7458 23.4231C40.3051 23.8501 39.7077 24.0905 39.0844 24.0915C38.6688 24.099 38.2633 23.9672 37.9367 23.7182Z" fill="#5F6368"/>
<path fill-rule="evenodd" clip-rule="evenodd" d="M51 17.4961L46.0679 28.4783H44.5431L46.3734 24.6356L43.1302 17.4961H44.7358L47.0798 22.9716H47.1119L49.3917 17.4961H51Z" fill="#5F6368"/>
<path fill-rule="evenodd" clip-rule="evenodd" d="M23.9486 19.6346C23.9491 19.1985 23.9111 18.7631 23.8348 18.3333H17.6055V20.7981H21.1734C21.0258 21.5937 20.5493 22.2962 19.8541 22.743V24.343H21.9834C23.2302 23.2293 23.9486 21.5821 23.9486 19.6346Z" fill="#4285F4"/>
<path fill-rule="evenodd" clip-rule="evenodd" d="M17.6054 25.889C19.388 25.889 20.8889 25.3219 21.9834 24.3441L19.8541 22.7441C19.2614 23.1334 18.4981 23.3556 17.6054 23.3556C15.8825 23.3556 14.4201 22.2303 13.8972 20.7139H11.7036V22.3628C12.8249 24.5245 15.1084 25.8889 17.6054 25.889Z" fill="#34A853"/>
<path fill-rule="evenodd" clip-rule="evenodd" d="M13.8973 20.7139C13.6209 19.9193 13.6209 19.0588 13.8973 18.2641V16.6152H11.7037C10.7659 18.4233 10.7659 20.5547 11.7037 22.3628L13.8973 20.7139Z" fill="#FBBC04"/>
<path fill-rule="evenodd" clip-rule="evenodd" d="M17.6054 15.6221C18.5475 15.6072 19.4577 15.9521 20.1394 16.5821V16.5821L22.0247 14.7555C20.8292 13.6675 19.2455 13.0702 17.6054 13.0888C15.1084 13.0889 12.8249 14.4533 11.7036 16.615L13.8972 18.2639C14.4201 16.7475 15.8825 15.6221 17.6054 15.6221Z" fill="#EA4335"/>
</g>
<defs>
<filter id="filter0_d_95_302" x="0" y="0" width="62" height="44" filterUnits="userSpaceOnUse" color-interpolation-filters="sRGB">
<feFlood flood-opacity="0" result="BackgroundImageFix"/>
<feColorMatrix in="SourceAlpha" type="matrix" values="0 0 0 0 0 0 0 0 0 0 0 0 0 0 0 0 0 0 127 0" result="hardAlpha"/>
<feOffset dy="1"/>
<feGaussianBlur stdDeviation="1"/>
<feColorMatrix type="matrix" values="0 0 0 0 0 0 0 0 0 0 0 0 0 0 0 0 0 0 0.05 0"/>
<feBlend mode="normal" in2="BackgroundImageFix" result="effect1_dropShadow_95_302"/>
<feBlend mode="normal" in="SourceGraphic" in2="effect1_dropShadow_95_302" result="shape"/>
</filter>
</defs>
</svg>
