<svg width="62" height="44" viewBox="0 0 62 44" fill="none" xmlns="http://www.w3.org/2000/svg">
<g filter="url(#filter0_d_99_297)">
<rect x="2.5" y="1.5" width="57" height="39" rx="3.5" fill="white" stroke="#F3F3F3"/>
<path fill-rule="evenodd" clip-rule="evenodd" d="M23.249 31.8907V33.3676V34.8444H22.6017V34.4858C22.3964 34.7518 22.0849 34.9187 21.6614 34.9187C20.8266 34.9187 20.1722 34.2701 20.1722 33.3676C20.1722 32.4657 20.8266 31.8164 21.6614 31.8164C22.0849 31.8164 22.3964 31.9834 22.6017 32.2493V31.8907H23.249ZM21.742 32.4219C21.1816 32.4219 20.8387 32.8484 20.8387 33.3676C20.8387 33.8867 21.1816 34.3132 21.742 34.3132C22.2773 34.3132 22.6387 33.9051 22.6387 33.3676C22.6387 32.83 22.2773 32.4219 21.742 32.4219ZM45.1229 33.3676C45.1229 32.8484 45.4658 32.4219 46.0261 32.4219C46.5622 32.4219 46.9229 32.83 46.9229 33.3676C46.9229 33.9051 46.5622 34.3132 46.0261 34.3132C45.4658 34.3132 45.1229 33.8867 45.1229 33.3676ZM47.5338 30.7045V33.3676V34.8444H46.8858V34.4858C46.6805 34.7518 46.369 34.9187 45.9455 34.9187C45.1108 34.9187 44.4563 34.2701 44.4563 33.3676C44.4563 32.4657 45.1108 31.8164 45.9455 31.8164C46.369 31.8164 46.6805 31.9834 46.8858 32.2493V30.7045H47.5338ZM31.2838 32.3915C31.7008 32.3915 31.9689 32.6511 32.0373 33.108H30.4925C30.5617 32.6815 30.8226 32.3915 31.2838 32.3915ZM29.8138 33.3676C29.8138 32.4466 30.4241 31.8164 31.2966 31.8164C32.1307 31.8164 32.7038 32.4466 32.7103 33.3676C32.7103 33.4539 32.7038 33.5345 32.6974 33.6144H30.4868C30.5802 34.1463 30.9601 34.338 31.3772 34.338C31.6759 34.338 31.9938 34.2262 32.2433 34.0289L32.5605 34.5049C32.1991 34.8077 31.7885 34.9187 31.3401 34.9187C30.449 34.9187 29.8138 34.3069 29.8138 33.3676ZM39.1126 33.3676C39.1126 32.8484 39.4555 32.4219 40.0158 32.4219C40.5512 32.4219 40.9126 32.83 40.9126 33.3676C40.9126 33.9051 40.5512 34.3132 40.0158 34.3132C39.4555 34.3132 39.1126 33.8867 39.1126 33.3676ZM41.5229 31.8907V33.3676V34.8444H40.8756V34.4858C40.6695 34.7518 40.3587 34.9187 39.9353 34.9187C39.1005 34.9187 38.4461 34.2701 38.4461 33.3676C38.4461 32.4657 39.1005 31.8164 39.9353 31.8164C40.3587 31.8164 40.6695 31.9834 40.8756 32.2493V31.8907H41.5229ZM35.4569 33.3676C35.4569 34.2637 36.0857 34.9187 37.0452 34.9187C37.4936 34.9187 37.7923 34.8197 38.116 34.5665L37.8052 34.0473C37.5621 34.2206 37.3069 34.3132 37.026 34.3132C36.5091 34.3069 36.1292 33.9362 36.1292 33.3676C36.1292 32.7989 36.5091 32.4283 37.026 32.4219C37.3069 32.4219 37.5621 32.5145 37.8052 32.6878L38.116 32.1687C37.7923 31.9155 37.4936 31.8164 37.0452 31.8164C36.0857 31.8164 35.4569 32.4714 35.4569 33.3676ZM43.0176 32.2493C43.1859 31.9897 43.429 31.8164 43.8025 31.8164C43.9337 31.8164 44.1205 31.8412 44.2637 31.8971L44.0641 32.5025C43.9273 32.4466 43.7904 32.4283 43.6592 32.4283C43.2358 32.4283 43.024 32.6999 43.024 33.1886V34.8444H42.376V31.8907H43.0176V32.2493ZM26.4504 32.1255C26.1389 31.9218 25.7098 31.8164 25.2364 31.8164C24.4822 31.8164 23.9967 32.175 23.9967 32.7621C23.9967 33.2438 24.3582 33.5409 25.024 33.6335L25.3298 33.6767C25.6848 33.7262 25.8523 33.8188 25.8523 33.9858C25.8523 34.2142 25.6157 34.3444 25.1737 34.3444C24.7253 34.3444 24.4016 34.2022 24.1835 34.0353L23.8784 34.5353C24.2334 34.7949 24.6818 34.9187 25.1673 34.9187C26.027 34.9187 26.5253 34.5169 26.5253 33.9546C26.5253 33.4355 26.1332 33.1639 25.4852 33.0712L25.1801 33.0273C24.8999 32.9906 24.6754 32.9354 24.6754 32.7373C24.6754 32.5209 24.8871 32.3915 25.2421 32.3915C25.6221 32.3915 25.9899 32.5336 26.1703 32.6447L26.4504 32.1255ZM34.0184 32.2493C34.1859 31.9897 34.429 31.8164 34.8025 31.8164C34.9337 31.8164 35.1205 31.8412 35.2638 31.8971L35.0642 32.5025C34.9273 32.4466 34.7904 32.4283 34.6593 32.4283C34.2358 32.4283 34.0241 32.6999 34.0241 33.1886V34.8444H33.3768V31.8907H34.0184V32.2493ZM29.2784 31.8907H28.2198V30.9945H27.5653V31.8907H26.9615V32.4778H27.5653V33.8252C27.5653 34.5106 27.8334 34.9187 28.599 34.9187C28.8799 34.9187 29.2035 34.8324 29.4088 34.6902L29.2221 34.14C29.0289 34.251 28.8171 34.3069 28.6489 34.3069C28.3253 34.3069 28.2198 34.1088 28.2198 33.8125V32.4778H29.2784V31.8907ZM19.5997 32.9906V34.8444H18.9453V33.2006C18.9453 32.6999 18.7336 32.4219 18.2916 32.4219C17.8617 32.4219 17.563 32.6942 17.563 33.207V34.8444H16.9086V33.2006C16.9086 32.6999 16.6912 32.4219 16.2613 32.4219C15.8186 32.4219 15.5321 32.6942 15.5321 33.207V34.8444H14.8784V31.8907H15.5264V32.255C15.7695 31.9091 16.0803 31.8164 16.3982 31.8164C16.853 31.8164 17.1767 32.0145 17.382 32.342C17.6564 31.9275 18.0485 31.8101 18.4285 31.8164C19.1513 31.8228 19.5997 32.2925 19.5997 32.9906Z" fill="#231F20"/>
<path d="M36.0466 26.8717H26.236V9.37842H36.0466V26.8717Z" fill="#FF5F00"/>
<path d="M26.8583 18.1254C26.8583 14.5768 28.5328 11.4159 31.1405 9.37879C29.2336 7.88919 26.8269 7.0001 24.2114 7.0001C18.0194 7.0001 13 11.981 13 18.1254C13 24.2698 18.0194 29.2507 24.2114 29.2507C26.8269 29.2507 29.2336 28.3616 31.1405 26.872C28.5328 24.835 26.8583 21.674 26.8583 18.1254" fill="#EB001B"/>
<path d="M49.2818 18.1254C49.2818 24.2698 44.2624 29.2507 38.0704 29.2507C35.4548 29.2507 33.0482 28.3616 31.1405 26.872C33.7489 24.835 35.4235 21.674 35.4235 18.1254C35.4235 14.5768 33.7489 11.4159 31.1405 9.37879C33.0482 7.88919 35.4548 7.0001 38.0704 7.0001C44.2624 7.0001 49.2818 11.981 49.2818 18.1254" fill="#F79E1B"/>
</g>
<defs>
<filter id="filter0_d_99_297" x="0" y="0" width="62" height="44" filterUnits="userSpaceOnUse" color-interpolation-filters="sRGB">
<feFlood flood-opacity="0" result="BackgroundImageFix"/>
<feColorMatrix in="SourceAlpha" type="matrix" values="0 0 0 0 0 0 0 0 0 0 0 0 0 0 0 0 0 0 127 0" result="hardAlpha"/>
<feOffset dy="1"/>
<feGaussianBlur stdDeviation="1"/>
<feColorMatrix type="matrix" values="0 0 0 0 0 0 0 0 0 0 0 0 0 0 0 0 0 0 0.05 0"/>
<feBlend mode="normal" in2="BackgroundImageFix" result="effect1_dropShadow_99_297"/>
<feBlend mode="normal" in="SourceGraphic" in2="effect1_dropShadow_99_297" result="shape"/>
</filter>
</defs>
</svg>
