<svg width="62" height="44" viewBox="0 0 62 44" fill="none" xmlns="http://www.w3.org/2000/svg">
<g filter="url(#filter0_d_95_272)">
<rect x="2.5" y="1.5" width="57" height="39" rx="3.5" fill="white" stroke="#F3F3F3"/>
<path fill-rule="evenodd" clip-rule="evenodd" d="M28.4387 21.2562L28.6912 19.6477L28.1287 19.6346H25.4427L27.3094 7.76505C27.3152 7.72911 27.334 7.69575 27.3615 7.67201C27.3891 7.64827 27.4242 7.63525 27.461 7.63525H31.99C33.4936 7.63525 34.5312 7.94897 35.0729 8.56826C35.3269 8.85879 35.4886 9.16246 35.5669 9.49653C35.649 9.84713 35.6504 10.266 35.5703 10.7769L35.5645 10.814V11.1415L35.8185 11.2858C36.0323 11.3996 36.2023 11.5298 36.3327 11.6788C36.5499 11.9273 36.6904 12.2431 36.7498 12.6173C36.8112 13.0022 36.7909 13.4604 36.6904 13.979C36.5745 14.5755 36.3872 15.0951 36.1341 15.5202C35.9015 15.9119 35.6051 16.2369 35.253 16.4886C34.9169 16.7279 34.5177 16.9095 34.0662 17.0257C33.6287 17.1399 33.1299 17.1975 32.5829 17.1975H32.2304C31.9785 17.1975 31.7337 17.2886 31.5415 17.4517C31.3488 17.6183 31.2214 17.8459 31.1823 18.0947L31.1556 18.2396L30.7095 21.0747L30.6893 21.1787C30.6839 21.2117 30.6747 21.2281 30.6612 21.2392C30.6491 21.2494 30.6318 21.2562 30.6149 21.2562H28.4387" fill="#28356A"/>
<path fill-rule="evenodd" clip-rule="evenodd" d="M36.0591 10.8518C36.0457 10.9385 36.0301 11.027 36.0128 11.1181C35.4156 14.1934 33.3722 15.2558 30.7625 15.2558H29.4337C29.1145 15.2558 28.8455 15.4881 28.7959 15.8038L27.9229 21.3573C27.8906 21.5647 28.0499 21.7514 28.2584 21.7514H30.6152C30.8942 21.7514 31.1313 21.5481 31.1753 21.2721L31.1984 21.1521L31.6421 18.3281L31.6707 18.1732C31.7141 17.8962 31.9517 17.6928 32.2307 17.6928H32.5832C34.8665 17.6928 36.654 16.7632 37.1765 14.0728C37.3946 12.9489 37.2817 12.0105 36.7042 11.3505C36.5295 11.1516 36.3127 10.9864 36.0591 10.8518" fill="#298FC2"/>
<path fill-rule="evenodd" clip-rule="evenodd" d="M35.4343 10.6019C35.343 10.5752 35.2489 10.5511 35.1523 10.5292C35.0552 10.5079 34.9558 10.4891 34.8534 10.4725C34.4951 10.4145 34.1025 10.387 33.682 10.387H30.1323C30.0448 10.387 29.9617 10.4068 29.8875 10.4426C29.7237 10.5215 29.6021 10.6769 29.5726 10.8672L28.8174 15.664L28.7958 15.8038C28.8454 15.4881 29.1144 15.2557 29.4336 15.2557H30.7624C33.3721 15.2557 35.4155 14.1928 36.0127 11.118C36.0306 11.027 36.0456 10.9384 36.059 10.8518C35.9079 10.7713 35.7443 10.7026 35.568 10.644C35.5245 10.6295 35.4796 10.6155 35.4343 10.6019" fill="#22284F"/>
<path fill-rule="evenodd" clip-rule="evenodd" d="M29.5726 10.8674C29.6021 10.6771 29.7237 10.5216 29.8875 10.4433C29.9623 10.4073 30.0448 10.3875 30.1323 10.3875H33.6821C34.1025 10.3875 34.4952 10.4152 34.8534 10.4732C34.9558 10.4896 35.0552 10.5086 35.1523 10.5299C35.2489 10.5516 35.343 10.5759 35.4343 10.6025C35.4796 10.616 35.5245 10.6302 35.5685 10.6441C35.7447 10.7027 35.9085 10.772 36.0595 10.8519C36.2372 9.71545 36.058 8.94168 35.4454 8.241C34.7698 7.46953 33.5507 7.1394 31.9907 7.1394H27.4616C27.143 7.1394 26.8711 7.37174 26.8219 7.68803L24.9355 19.6796C24.8983 19.9168 25.0807 20.1309 25.3193 20.1309H28.1154L29.5726 10.8674" fill="#28356A"/>
<path fill-rule="evenodd" clip-rule="evenodd" d="M15.0946 24.5208H11.7925C11.5665 24.5208 11.3743 24.6854 11.339 24.9092L10.0035 33.4008C9.97695 33.5685 10.1064 33.7194 10.2758 33.7194H11.8523C12.0782 33.7194 12.2704 33.5549 12.3057 33.3307L12.6659 31.0403C12.7006 30.8161 12.8932 30.6514 13.1188 30.6514H14.1641C16.3393 30.6514 17.5946 29.5958 17.9226 27.5041C18.0703 26.5889 17.9288 25.8699 17.5014 25.3663C17.0321 24.8133 16.1997 24.5208 15.0946 24.5208ZM15.4754 27.6222C15.2948 28.8105 14.3895 28.8105 13.5142 28.8105H13.0158L13.3654 26.5913C13.3863 26.4572 13.502 26.3584 13.6373 26.3584H13.8657C14.462 26.3584 15.0245 26.3584 15.3151 26.6993C15.4885 26.9026 15.5415 27.2048 15.4754 27.6222Z" fill="#28356A"/>
<path fill-rule="evenodd" clip-rule="evenodd" d="M25.0496 27.5198H23.4683C23.3336 27.5198 23.2171 27.6185 23.1964 27.7527L23.1264 28.1962L23.0159 28.0355C22.6736 27.5372 21.9101 27.3706 21.1483 27.3706C19.4008 27.3706 17.9084 28.6979 17.6177 30.5597C17.4666 31.4884 17.6814 32.3765 18.2068 32.9958C18.6887 33.5652 19.3782 33.8025 20.1985 33.8025C21.6065 33.8025 22.3871 32.8946 22.3871 32.8946L22.3167 33.3353C22.2902 33.5037 22.4196 33.6548 22.5881 33.6548H24.0124C24.2389 33.6548 24.4301 33.4902 24.4659 33.266L25.3205 27.8384C25.3475 27.6713 25.2185 27.5198 25.0496 27.5198ZM22.8453 30.6062C22.6928 31.5121 21.9758 32.1203 21.0613 32.1203C20.6022 32.1203 20.2352 31.9726 19.9995 31.6928C19.7658 31.4149 19.6771 31.0192 19.7513 30.5786C19.8939 29.6804 20.6228 29.0523 21.5234 29.0523C21.9725 29.0523 22.3375 29.202 22.578 29.4842C22.8188 29.7694 22.9144 30.1675 22.8453 30.6062Z" fill="#28356A"/>
<path fill-rule="evenodd" clip-rule="evenodd" d="M33.3497 27.6558H31.7606C31.6089 27.6558 31.4665 27.7313 31.3807 27.8577L29.189 31.0951L28.26 27.984C28.2016 27.7894 28.0225 27.6558 27.8197 27.6558H26.2582C26.0684 27.6558 25.9366 27.8417 25.997 28.0209L27.7473 33.1719L26.1018 35.5015C25.9723 35.685 26.1027 35.9373 26.3263 35.9373H27.9134C28.064 35.9373 28.205 35.8636 28.2904 35.7398L33.5755 28.0891C33.7021 27.9061 33.5722 27.6558 33.3497 27.6558" fill="#28356A"/>
<path fill-rule="evenodd" clip-rule="evenodd" d="M38.647 24.5208H35.3444C35.119 24.5208 34.9268 24.6854 34.8915 24.9092L33.5559 33.4008C33.5294 33.5685 33.6589 33.7194 33.8274 33.7194H35.5221C35.6794 33.7194 35.8141 33.6043 35.8387 33.4473L36.2178 31.0403C36.2526 30.8161 36.4453 30.6514 36.6708 30.6514H37.7157C39.8912 30.6514 41.1462 29.5958 41.4745 27.5041C41.6228 26.5889 41.4804 25.8699 41.053 25.3663C40.5841 24.8133 39.7522 24.5208 38.647 24.5208ZM39.028 27.6222C38.8479 28.8105 37.9425 28.8105 37.0667 28.8105H36.569L36.919 26.5913C36.9397 26.4572 37.0546 26.3584 37.1903 26.3584H37.4187C38.0145 26.3584 38.5775 26.3584 38.8682 26.6993C39.0415 26.9026 39.0941 27.2048 39.028 27.6222Z" fill="#298FC2"/>
<path fill-rule="evenodd" clip-rule="evenodd" d="M48.5999 27.5198H47.0196C46.8839 27.5198 46.7686 27.6185 46.7483 27.7527L46.6782 28.1962L46.5672 28.0355C46.2249 27.5372 45.462 27.3706 44.7 27.3706C42.9526 27.3706 41.4608 28.6979 41.1701 30.5597C41.0194 31.4884 41.2333 32.3765 41.7586 32.9958C42.2415 33.5652 42.9299 33.8025 43.7503 33.8025C45.1582 33.8025 45.939 32.8946 45.939 32.8946L45.8685 33.3353C45.842 33.5037 45.9713 33.6548 46.1409 33.6548H47.5648C47.7902 33.6548 47.9824 33.4902 48.0177 33.266L48.8727 27.8384C48.8988 27.6713 48.7694 27.5198 48.5999 27.5198ZM46.3958 30.6062C46.2441 31.5121 45.5261 32.1203 44.6116 32.1203C44.1534 32.1203 43.7855 31.9726 43.5498 31.6928C43.3162 31.4149 43.2283 31.0192 43.3016 30.5786C43.4451 29.6804 44.1731 29.0523 45.0737 29.0523C45.5227 29.0523 45.8878 29.202 46.1282 29.4842C46.3701 29.7694 46.4657 30.1675 46.3958 30.6062Z" fill="#298FC2"/>
<path fill-rule="evenodd" clip-rule="evenodd" d="M50.3324 24.7542L48.9771 33.4012C48.9506 33.5689 49.0799 33.7198 49.2484 33.7198H50.611C50.8375 33.7198 51.0296 33.5553 51.0643 33.3311L52.4008 24.8399C52.4275 24.6723 52.298 24.5208 52.1295 24.5208H50.6038C50.4691 24.5212 50.3532 24.62 50.3324 24.7542" fill="#298FC2"/>
</g>
<defs>
<filter id="filter0_d_95_272" x="0" y="0" width="62" height="44" filterUnits="userSpaceOnUse" color-interpolation-filters="sRGB">
<feFlood flood-opacity="0" result="BackgroundImageFix"/>
<feColorMatrix in="SourceAlpha" type="matrix" values="0 0 0 0 0 0 0 0 0 0 0 0 0 0 0 0 0 0 127 0" result="hardAlpha"/>
<feOffset dy="1"/>
<feGaussianBlur stdDeviation="1"/>
<feColorMatrix type="matrix" values="0 0 0 0 0 0 0 0 0 0 0 0 0 0 0 0 0 0 0.05 0"/>
<feBlend mode="normal" in2="BackgroundImageFix" result="effect1_dropShadow_95_272"/>
<feBlend mode="normal" in="SourceGraphic" in2="effect1_dropShadow_95_272" result="shape"/>
</filter>
</defs>
</svg>
