<svg width="79" height="38" viewBox="0 0 79 38" fill="none" xmlns="http://www.w3.org/2000/svg">
<path d="M4.12375 15.57C3.52642 15.57 2.96175 15.486 2.42975 15.318C1.89775 15.15 1.48708 14.9353 1.19775 14.674L1.67375 13.89C1.95375 14.142 2.32242 14.3427 2.77975 14.492C3.23708 14.632 3.71775 14.702 4.22175 14.702C4.92175 14.702 5.45842 14.5853 5.83175 14.352C6.21442 14.1187 6.40575 13.7967 6.40575 13.386C6.40575 13.106 6.30308 12.896 6.09775 12.756C5.90175 12.6067 5.64508 12.4947 5.32775 12.42C5.01042 12.336 4.67442 12.2567 4.31975 12.182C3.96508 12.1073 3.62908 12.014 3.31175 11.902C2.99442 11.7807 2.73308 11.5987 2.52775 11.356C2.33175 11.1133 2.23375 10.7867 2.23375 10.376C2.23375 9.90933 2.36442 9.50333 2.62575 9.158C2.89642 8.81267 3.26975 8.54667 3.74575 8.36C4.22175 8.17333 4.78175 8.08 5.42575 8.08C5.89242 8.08 6.35442 8.14067 6.81175 8.262C7.26908 8.38333 7.63775 8.55133 7.91775 8.766L7.49775 9.564C7.20842 9.34 6.87242 9.18133 6.48975 9.088C6.10708 8.98533 5.72442 8.934 5.34175 8.934C4.66042 8.934 4.13308 9.06 3.75975 9.312C3.39575 9.55467 3.21375 9.87667 3.21375 10.278C3.21375 10.558 3.31175 10.7727 3.50775 10.922C3.71308 11.0713 3.97442 11.188 4.29175 11.272C4.60908 11.356 4.94508 11.4353 5.29975 11.51C5.66375 11.5753 5.99975 11.6687 6.30775 11.79C6.62508 11.9113 6.88175 12.0887 7.07775 12.322C7.28308 12.546 7.38575 12.8633 7.38575 13.274C7.38575 13.7593 7.25042 14.1747 6.97975 14.52C6.70908 14.856 6.32642 15.1173 5.83175 15.304C5.34642 15.4813 4.77708 15.57 4.12375 15.57ZM10.823 15.5L9.38097 8.15H10.291L11.593 14.968H11.145L15.037 8.15H15.877L17.221 14.968H16.773L20.609 8.15H21.575L17.417 15.5H16.451L15.135 9.088H15.443L11.775 15.5H10.823ZM22.1057 15.5L23.5617 8.15H24.5557L23.0997 15.5H22.1057ZM24.4857 6.526C24.2897 6.526 24.1263 6.46067 23.9957 6.33C23.8743 6.19933 23.8137 6.04533 23.8137 5.868C23.8137 5.66267 23.8837 5.48533 24.0237 5.336C24.173 5.18667 24.3597 5.112 24.5837 5.112C24.7797 5.112 24.943 5.17267 25.0737 5.294C25.2043 5.41533 25.2697 5.56933 25.2697 5.756C25.2697 5.98 25.195 6.16667 25.0457 6.316C24.8963 6.456 24.7097 6.526 24.4857 6.526ZM28.7634 15.57C28.3434 15.57 27.9841 15.4813 27.6854 15.304C27.3868 15.1173 27.1768 14.856 27.0554 14.52C26.9434 14.184 26.9341 13.7827 27.0274 13.316L28.3714 6.526H29.3654L28.0214 13.274C27.9281 13.7313 27.9608 14.086 28.1194 14.338C28.2874 14.59 28.5908 14.716 29.0294 14.716C29.2348 14.716 29.4354 14.688 29.6314 14.632C29.8274 14.5667 30.0048 14.4687 30.1634 14.338L30.4014 15.094C30.1681 15.2713 29.9068 15.3973 29.6174 15.472C29.3281 15.5373 29.0434 15.57 28.7634 15.57ZM26.5794 8.976L26.7334 8.15H31.2834L31.1154 8.976H26.5794ZM35.7452 15.57C35.0452 15.57 34.4385 15.444 33.9252 15.192C33.4212 14.9307 33.0292 14.5667 32.7492 14.1C32.4785 13.6333 32.3432 13.0827 32.3432 12.448C32.3432 11.608 32.5252 10.8613 32.8892 10.208C33.2532 9.54533 33.7572 9.02733 34.4012 8.654C35.0545 8.27133 35.7965 8.08 36.6272 8.08C37.3085 8.08 37.8918 8.206 38.3772 8.458C38.8718 8.70067 39.2545 9.06467 39.5252 9.55L38.6852 10.04C38.4798 9.66667 38.1952 9.39133 37.8312 9.214C37.4765 9.03667 37.0472 8.948 36.5432 8.948C35.9272 8.948 35.3765 9.09733 34.8912 9.396C34.4058 9.69467 34.0232 10.1053 33.7432 10.628C33.4725 11.1413 33.3372 11.734 33.3372 12.406C33.3372 13.1247 33.5472 13.6847 33.9672 14.086C34.3965 14.4873 35.0032 14.688 35.7872 14.688C36.2632 14.688 36.7018 14.5993 37.1032 14.422C37.5138 14.2353 37.8498 13.9693 38.1112 13.624L38.8252 14.17C38.5078 14.6087 38.0738 14.954 37.5232 15.206C36.9725 15.4487 36.3798 15.57 35.7452 15.57ZM45.8065 8.08C46.4691 8.08 47.0105 8.21067 47.4305 8.472C47.8598 8.724 48.1538 9.09267 48.3125 9.578C48.4805 10.0633 48.4945 10.642 48.3545 11.314L47.5145 15.5H46.5205L47.3605 11.3C47.5098 10.572 47.4305 10.0027 47.1225 9.592C46.8238 9.18133 46.2918 8.976 45.5265 8.976C44.7425 8.976 44.0891 9.19067 43.5665 9.62C43.0531 10.0493 42.7078 10.6933 42.5305 11.552L41.7465 15.5H40.7525L42.8245 5.112H43.8185L42.7825 10.264L42.5305 9.9C42.8851 9.26533 43.3425 8.80333 43.9025 8.514C44.4718 8.22467 45.1065 8.08 45.8065 8.08ZM50.7734 15.5L52.8454 5.112H53.8394L51.7674 15.5H50.7734ZM58.4532 15.57C57.7532 15.57 57.1418 15.444 56.6192 15.192C56.1058 14.9307 55.7092 14.5667 55.4292 14.1C55.1585 13.6333 55.0232 13.078 55.0232 12.434C55.0232 11.594 55.2005 10.8473 55.5552 10.194C55.9098 9.54067 56.3952 9.02733 57.0112 8.654C57.6272 8.27133 58.3225 8.08 59.0972 8.08C59.7505 8.08 60.3152 8.206 60.7912 8.458C61.2672 8.70067 61.6358 9.05533 61.8972 9.522C62.1678 9.98867 62.3032 10.5487 62.3032 11.202C62.3032 11.3513 62.2938 11.5053 62.2752 11.664C62.2565 11.8133 62.2332 11.958 62.2052 12.098H55.7512L55.8772 11.356H61.7432L61.3372 11.636C61.4305 11.048 61.3885 10.5533 61.2112 10.152C61.0338 9.75067 60.7585 9.44733 60.3852 9.242C60.0212 9.02733 59.5825 8.92 59.0692 8.92C58.4718 8.92 57.9398 9.06933 57.4732 9.368C57.0065 9.65733 56.6425 10.0633 56.3812 10.586C56.1198 11.0993 55.9892 11.7013 55.9892 12.392C55.9892 13.1293 56.1992 13.6987 56.6192 14.1C57.0485 14.492 57.6878 14.688 58.5372 14.688C59.0318 14.688 59.4892 14.6087 59.9092 14.45C60.3292 14.282 60.6745 14.0533 60.9452 13.764L61.3932 14.478C61.0478 14.8233 60.6138 15.094 60.0912 15.29C59.5778 15.4767 59.0318 15.57 58.4532 15.57ZM66.2444 15.57C65.647 15.57 65.0824 15.486 64.5504 15.318C64.0184 15.15 63.6077 14.9353 63.3184 14.674L63.7944 13.89C64.0744 14.142 64.443 14.3427 64.9004 14.492C65.3577 14.632 65.8384 14.702 66.3424 14.702C67.0424 14.702 67.579 14.5853 67.9524 14.352C68.335 14.1187 68.5264 13.7967 68.5264 13.386C68.5264 13.106 68.4237 12.896 68.2184 12.756C68.0224 12.6067 67.7657 12.4947 67.4484 12.42C67.131 12.336 66.795 12.2567 66.4404 12.182C66.0857 12.1073 65.7497 12.014 65.4324 11.902C65.115 11.7807 64.8537 11.5987 64.6484 11.356C64.4524 11.1133 64.3544 10.7867 64.3544 10.376C64.3544 9.90933 64.485 9.50333 64.7464 9.158C65.017 8.81267 65.3904 8.54667 65.8664 8.36C66.3424 8.17333 66.9024 8.08 67.5464 8.08C68.013 8.08 68.475 8.14067 68.9324 8.262C69.3897 8.38333 69.7584 8.55133 70.0384 8.766L69.6184 9.564C69.329 9.34 68.993 9.18133 68.6104 9.088C68.2277 8.98533 67.845 8.934 67.4624 8.934C66.781 8.934 66.2537 9.06 65.8804 9.312C65.5164 9.55467 65.3344 9.87667 65.3344 10.278C65.3344 10.558 65.4324 10.7727 65.6284 10.922C65.8337 11.0713 66.095 11.188 66.4124 11.272C66.7297 11.356 67.0657 11.4353 67.4204 11.51C67.7844 11.5753 68.1204 11.6687 68.4284 11.79C68.7457 11.9113 69.0024 12.0887 69.1984 12.322C69.4037 12.546 69.5064 12.8633 69.5064 13.274C69.5064 13.7593 69.371 14.1747 69.1004 14.52C68.8297 14.856 68.447 15.1173 67.9524 15.304C67.467 15.4813 66.8977 15.57 66.2444 15.57ZM73.6403 15.57C73.043 15.57 72.4783 15.486 71.9463 15.318C71.4143 15.15 71.0037 14.9353 70.7143 14.674L71.1903 13.89C71.4703 14.142 71.839 14.3427 72.2963 14.492C72.7537 14.632 73.2343 14.702 73.7383 14.702C74.4383 14.702 74.975 14.5853 75.3483 14.352C75.731 14.1187 75.9223 13.7967 75.9223 13.386C75.9223 13.106 75.8197 12.896 75.6143 12.756C75.4183 12.6067 75.1617 12.4947 74.8443 12.42C74.527 12.336 74.191 12.2567 73.8363 12.182C73.4817 12.1073 73.1457 12.014 72.8283 11.902C72.511 11.7807 72.2497 11.5987 72.0443 11.356C71.8483 11.1133 71.7503 10.7867 71.7503 10.376C71.7503 9.90933 71.881 9.50333 72.1423 9.158C72.413 8.81267 72.7863 8.54667 73.2623 8.36C73.7383 8.17333 74.2983 8.08 74.9423 8.08C75.409 8.08 75.871 8.14067 76.3283 8.262C76.7857 8.38333 77.1543 8.55133 77.4343 8.766L77.0143 9.564C76.725 9.34 76.389 9.18133 76.0063 9.088C75.6237 8.98533 75.241 8.934 74.8583 8.934C74.177 8.934 73.6497 9.06 73.2763 9.312C72.9123 9.55467 72.7303 9.87667 72.7303 10.278C72.7303 10.558 72.8283 10.7727 73.0243 10.922C73.2297 11.0713 73.491 11.188 73.8083 11.272C74.1257 11.356 74.4617 11.4353 74.8163 11.51C75.1803 11.5753 75.5163 11.6687 75.8243 11.79C76.1417 11.9113 76.3983 12.0887 76.5943 12.322C76.7997 12.546 76.9023 12.8633 76.9023 13.274C76.9023 13.7593 76.767 14.1747 76.4963 14.52C76.2257 14.856 75.843 15.1173 75.3483 15.304C74.863 15.4813 74.2937 15.57 73.6403 15.57ZM13.6839 18.7H17.5719V35.5H13.6839V18.7ZM6.05188 35.5H2.16388V18.7H6.05188V35.5ZM13.9719 28.612H5.76388V25.324H13.9719V28.612ZM29.7067 35.788C28.3787 35.788 27.1467 35.572 26.0107 35.14C24.8907 34.708 23.9147 34.1 23.0827 33.316C22.2667 32.532 21.6267 31.612 21.1627 30.556C20.7147 29.5 20.4907 28.348 20.4907 27.1C20.4907 25.852 20.7147 24.7 21.1627 23.644C21.6267 22.588 22.2747 21.668 23.1067 20.884C23.9387 20.1 24.9147 19.492 26.0347 19.06C27.1547 18.628 28.3707 18.412 29.6827 18.412C31.0107 18.412 32.2267 18.628 33.3307 19.06C34.4507 19.492 35.4187 20.1 36.2347 20.884C37.0667 21.668 37.7147 22.588 38.1787 23.644C38.6427 24.684 38.8747 25.836 38.8747 27.1C38.8747 28.348 38.6427 29.508 38.1787 30.58C37.7147 31.636 37.0667 32.556 36.2347 33.34C35.4187 34.108 34.4507 34.708 33.3307 35.14C32.2267 35.572 31.0187 35.788 29.7067 35.788ZM29.6827 32.476C30.4347 32.476 31.1227 32.348 31.7467 32.092C32.3867 31.836 32.9467 31.468 33.4267 30.988C33.9067 30.508 34.2747 29.94 34.5307 29.284C34.8027 28.628 34.9387 27.9 34.9387 27.1C34.9387 26.3 34.8027 25.572 34.5307 24.916C34.2747 24.26 33.9067 23.692 33.4267 23.212C32.9627 22.732 32.4107 22.364 31.7707 22.108C31.1307 21.852 30.4347 21.724 29.6827 21.724C28.9307 21.724 28.2347 21.852 27.5947 22.108C26.9707 22.364 26.4187 22.732 25.9387 23.212C25.4587 23.692 25.0827 24.26 24.8107 24.916C24.5547 25.572 24.4267 26.3 24.4267 27.1C24.4267 27.884 24.5547 28.612 24.8107 29.284C25.0827 29.94 25.4507 30.508 25.9147 30.988C26.3947 31.468 26.9547 31.836 27.5947 32.092C28.2347 32.348 28.9307 32.476 29.6827 32.476ZM41.7967 35.5V18.7H45.0127L52.1647 30.556H50.4607L57.4927 18.7H60.6847L60.7327 35.5H57.0847L57.0607 24.292H57.7327L52.1167 33.724H50.3647L44.6287 24.292H45.4447V35.5H41.7967ZM68.2946 25.468H76.3826V28.492H68.2946V25.468ZM68.5826 32.38H77.7266V35.5H64.7186V18.7H77.4146V21.82H68.5826V32.38Z" fill="#2563EB"/>
</svg>
