<svg width="62" height="44" viewBox="0 0 62 44" fill="none" xmlns="http://www.w3.org/2000/svg">
<g filter="url(#filter0_d_99_296)">
<rect x="2.5" y="1.5" width="57" height="39" rx="3.5" fill="white" stroke="#F3F3F3"/>
<path d="M27.7518 28.4333H23.8903L26.3056 14.4326H30.1668L27.7518 28.4333Z" fill="#15195A"/>
<path d="M41.7497 14.7748C40.9881 14.4915 39.78 14.1787 38.2863 14.1787C34.4729 14.1787 31.7876 16.0851 31.7711 18.8106C31.7395 20.8215 33.6938 21.9385 35.1554 22.609C36.6494 23.2941 37.1572 23.7413 37.1572 24.352C37.142 25.29 35.95 25.7223 34.8382 25.7223C33.2966 25.7223 32.4705 25.4994 31.2152 24.9776L30.7067 24.7539L30.1663 27.8967C31.072 28.2835 32.7406 28.6268 34.4729 28.6419C38.5247 28.6419 41.1625 26.765 41.1937 23.8605C41.2092 22.2667 40.1772 21.0454 37.9524 20.0475C36.6018 19.4069 35.7747 18.975 35.7747 18.3195C35.7906 17.7236 36.4743 17.1133 37.9989 17.1133C39.2542 17.0834 40.1766 17.3663 40.8753 17.6494L41.2246 17.7981L41.7497 14.7748V14.7748V14.7748Z" fill="#15195A"/>
<path fill-rule="evenodd" clip-rule="evenodd" d="M48.6619 14.4326H51.6488L54.764 28.4331H51.1887C51.1887 28.4331 50.8388 26.8245 50.7279 26.3329H45.7701C45.6267 26.7051 44.9596 28.4331 44.9596 28.4331H40.9079L46.6436 15.5943C47.041 14.6856 47.7408 14.4326 48.6619 14.4326ZM48.424 19.5561C48.424 19.5561 47.2003 22.669 46.8823 23.4734H50.092C49.9332 22.7734 49.2019 19.4221 49.2019 19.4221L48.9321 18.2157C48.8184 18.5263 48.6541 18.9534 48.5432 19.2415C48.4681 19.4368 48.4175 19.5682 48.424 19.5561Z" fill="#15195A"/>
<path fill-rule="evenodd" clip-rule="evenodd" d="M7.15902 14.4326H13.3718C14.2139 14.4621 14.8972 14.7153 15.1195 15.6095L16.4696 22.0416C16.4698 22.0422 16.47 22.0429 16.4702 22.0435L16.8834 23.9798L20.6651 14.4326H24.7483L18.6787 28.4185H14.5953L11.1536 16.2531C9.96606 15.6023 8.61076 15.0788 7.09546 14.7155L7.15902 14.4326Z" fill="#15195A"/>
</g>
<defs>
<filter id="filter0_d_99_296" x="0" y="0" width="62" height="44" filterUnits="userSpaceOnUse" color-interpolation-filters="sRGB">
<feFlood flood-opacity="0" result="BackgroundImageFix"/>
<feColorMatrix in="SourceAlpha" type="matrix" values="0 0 0 0 0 0 0 0 0 0 0 0 0 0 0 0 0 0 127 0" result="hardAlpha"/>
<feOffset dy="1"/>
<feGaussianBlur stdDeviation="1"/>
<feColorMatrix type="matrix" values="0 0 0 0 0 0 0 0 0 0 0 0 0 0 0 0 0 0 0.05 0"/>
<feBlend mode="normal" in2="BackgroundImageFix" result="effect1_dropShadow_99_296"/>
<feBlend mode="normal" in="SourceGraphic" in2="effect1_dropShadow_99_296" result="shape"/>
</filter>
</defs>
</svg>
